<?xml version="1.0" standalone="no"?>
<!DOCTYPE svg PUBLIC "-//W3C//DTD SVG 20010904//EN"
 "http://www.w3.org/TR/2001/REC-SVG-20010904/DTD/svg10.dtd">
<svg version="1.0" xmlns="http://www.w3.org/2000/svg"
 width="700.000000pt" height="700.000000pt" viewBox="0 0 700.000000 700.000000"
 preserveAspectRatio="xMidYMid meet">
<metadata>
Created by potrace 1.14, written by Peter Selinger 2001-2017
</metadata>
<g transform="translate(0.000000,700.000000) scale(0.100000,-0.100000)"
fill="#000000" stroke="none">
<path d="M3278 6995 c-1 -1 -42 -5 -89 -9 -47 -4 -95 -8 -105 -10 -10 -2 -46
-7 -79 -11 -32 -4 -68 -9 -80 -11 -11 -2 -45 -8 -75 -14 -78 -14 -83 -15 -205
-45 -124 -30 -382 -114 -463 -151 -29 -13 -55 -24 -59 -24 -14 0 -284 -136
-373 -188 -164 -95 -394 -257 -514 -362 -192 -167 -357 -340 -504 -529 -74
-95 -169 -228 -182 -256 -3 -5 -17 -28 -31 -50 -14 -22 -34 -56 -45 -75 -10
-19 -22 -37 -25 -40 -14 -11 -170 -342 -212 -450 -105 -272 -190 -612 -213
-855 -2 -22 -7 -76 -11 -120 -15 -157 -8 -594 12 -706 2 -13 7 -44 9 -69 14
-128 26 -187 77 -392 82 -326 208 -629 378 -912 36 -59 71 -116 76 -125 29
-49 136 -195 208 -284 157 -195 332 -370 532 -532 84 -68 329 -245 340 -245 3
0 29 -16 60 -35 83 -54 326 -176 455 -230 205 -85 458 -161 666 -200 116 -21
134 -24 184 -31 25 -3 56 -7 70 -10 157 -25 682 -25 842 1 13 2 43 6 68 9 25
3 72 11 105 17 33 5 74 12 90 15 166 28 491 129 687 213 522 223 994 580 1350
1021 54 66 196 261 225 310 222 362 357 672 443 1017 40 162 46 191 64 313 4
25 9 52 11 60 2 8 7 47 11 85 3 39 8 84 11 100 8 58 10 511 2 597 -13 138 -21
207 -39 308 -6 36 -13 79 -16 95 -31 177 -125 482 -217 700 -46 109 -177 356
-251 473 -533 841 -1358 1401 -2336 1587 -8 1 -37 6 -63 9 -27 4 -58 9 -70 12
-12 2 -49 6 -83 10 -33 3 -74 8 -90 10 -33 5 -540 14 -546 9z"/>
</g>
</svg>
